<svg width="44" height="44" viewBox="0 0 44 44" fill="none" xmlns="http://www.w3.org/2000/svg">
<path d="M33.0769 13H10.9231C10.6783 13 10.4435 13.1001 10.2704 13.2782C10.0973 13.4564 10 13.698 10 13.95V30.1C10 30.6039 10.1945 31.0872 10.5407 31.4435C10.8869 31.7998 11.3565 32 11.8462 32H32.1538C32.6435 32 33.1131 31.7998 33.4593 31.4435C33.8055 31.0872 34 30.6039 34 30.1V13.95C34 13.698 33.9027 13.4564 33.7296 13.2782C33.5565 13.1001 33.3217 13 33.0769 13ZM22 23.1116L13.2965 14.9H30.7035L22 23.1116ZM18.6204 22.5L11.8462 28.8899V16.1101L18.6204 22.5ZM19.9865 23.7884L21.3712 25.1006C21.5415 25.2615 21.7642 25.3508 21.9954 25.3508C22.2266 25.3508 22.4493 25.2615 22.6196 25.1006L24.0042 23.7884L30.6965 30.1H13.2965L19.9865 23.7884ZM25.3796 22.5L32.1538 16.1089V28.8911L25.3796 22.5Z" fill="#9CA3AF"/>
</svg>
