<svg width="54" height="45" viewBox="0 0 54 45" fill="none" xmlns="http://www.w3.org/2000/svg">
<path d="M24.1126 0.568129L3.98001 8.86656C2.86044 9.32811 2.87204 10.9125 3.99863 11.3573L24.2152 19.3435C25.9914 20.0453 27.9696 20.0453 29.7458 19.3435L49.9627 11.357C51.089 10.9125 51.1012 9.32841 49.981 8.86687L29.849 0.567825C28.0123 -0.189275 25.949 -0.189275 24.1123 0.567825" fill="#FCB400"/>
<path d="M28.7744 23.7045V43.6553C28.7744 44.6039 29.735 45.254 30.6204 44.9043L53.1478 36.1939C53.3991 36.0947 53.6146 35.9226 53.7664 35.6999C53.9183 35.4771 53.9995 35.2141 53.9994 34.9449V14.9943C53.9994 14.0454 53.0389 13.3956 52.1534 13.7453L29.626 22.4557C29.3748 22.555 29.1593 22.7271 29.0075 22.9499C28.8556 23.1726 28.7744 23.4352 28.7744 23.7045Z" fill="#18BFFF"/>
<path d="M23.5139 24.7336L16.8283 27.9492L16.1494 28.276L2.03646 35.0123C1.14215 35.4422 0 34.7927 0 33.8028V15.0775C0 14.7194 0.184356 14.4101 0.431588 14.1775C0.533014 14.0769 0.648081 13.991 0.773439 13.9221C1.11041 13.7206 1.59144 13.6667 2.00044 13.8279L23.4016 22.275C24.4894 22.7049 24.5749 24.2231 23.5139 24.7336Z" fill="#F82B60"/>
</svg>
