<svg width="70" height="70" viewBox="0 0 70 70" fill="none" xmlns="http://www.w3.org/2000/svg">
<path d="M32.1126 13.5681L11.98 21.8666C10.8604 22.3281 10.872 23.9125 11.9986 24.3573L32.2152 32.3435C33.9914 33.0453 35.9696 33.0453 37.7458 32.3435L57.9627 24.357C59.089 23.9125 59.1012 22.3284 57.981 21.8669L37.849 13.5678C36.0123 12.8107 33.949 12.8107 32.1123 13.5678" fill="#FCB400"/>
<path d="M36.7744 36.7045V56.6553C36.7744 57.6039 37.735 58.254 38.6204 57.9043L61.1478 49.1939C61.3991 49.0947 61.6146 48.9226 61.7664 48.6999C61.9183 48.4771 61.9995 48.2141 61.9994 47.9449V27.9943C61.9994 27.0454 61.0389 26.3956 60.1534 26.7453L37.626 35.4557C37.3748 35.555 37.1593 35.7271 37.0075 35.9499C36.8556 36.1726 36.7744 36.4352 36.7744 36.7045Z" fill="#18BFFF"/>
<path d="M31.5139 37.7336L24.8283 40.9492L24.1494 41.276L10.0365 48.0123C9.14215 48.4422 8 47.7927 8 46.8028V28.0775C8 27.7194 8.18436 27.4101 8.43159 27.1775C8.53301 27.0769 8.64808 26.991 8.77344 26.9221C9.11041 26.7206 9.59144 26.6667 10.0004 26.8279L31.4016 35.275C32.4894 35.7049 32.5749 37.2231 31.5139 37.7336Z" fill="#F82B60"/>
</svg>
