<svg width="24" height="24" viewBox="0 0 24 24" fill="none" xmlns="http://www.w3.org/2000/svg">
<path d="M10.5495 3C6.69709 3.00694 4.67977 3.10152 3.39055 4.39073C1.99927 5.78202 1.99927 8.02125 1.99927 12.4997C1.99927 16.9782 1.99927 19.2174 3.39055 20.6087C4.78184 22 7.02107 22 11.4996 22C15.978 22 18.2173 22 19.6086 20.6087C20.8978 19.3195 20.9924 17.3022 20.9993 13.4498" stroke="#FF6112" stroke-width="1.42606" stroke-linecap="round" stroke-linejoin="round"/>
<path d="M11.055 13C10.3316 3.86635 16.8017 1.27554 21.9799 2.16439C22.189 5.19136 20.7079 6.32482 17.8873 6.84825C18.432 7.41736 19.3944 8.13354 19.2906 9.02879C19.2167 9.66586 18.784 9.97843 17.9188 10.6036C16.0225 11.9736 13.8258 12.8375 11.055 13Z" stroke="#FF6112" stroke-width="1.42606" stroke-linecap="round" stroke-linejoin="round"/>
<path d="M8.99951 17C10.9995 11.5 12.9599 9.63636 14.9995 8" stroke="#FF6112" stroke-width="1.42606" stroke-linecap="round" stroke-linejoin="round"/>
</svg>
