<svg width="18" height="18" viewBox="0 0 18 18" fill="none" xmlns="http://www.w3.org/2000/svg">
<g clip-path="url(#clip0_481_133)">
<path d="M10.7371 1.72496L10.9351 4.38426M5.41846 2.12114L5.61654 4.78044" stroke="#FF6D23" stroke-linecap="round" stroke-linejoin="round"/>
<path d="M8.84112 3.20405L7.51147 3.30309C5.00426 3.48985 3.75066 3.58323 3.02978 4.42013C2.30891 5.25705 2.40229 6.51065 2.58904 9.01786L2.68809 10.3475C2.87484 12.8547 2.96823 14.1084 3.80513 14.8292C4.64205 15.5501 5.89565 15.4567 8.40286 15.2699L9.73251 15.1709C12.2397 14.9841 13.4934 14.8908 14.2142 14.0538C14.9351 13.217 14.8417 11.9633 14.6549 9.45612L14.5559 8.12647C14.3691 5.61926 14.2758 4.36566 13.4388 3.64478C12.602 2.92391 11.3483 3.01729 8.84112 3.20405Z" stroke="#FF6D23" stroke-linecap="round" stroke-linejoin="round"/>
<path d="M2.49023 7.68754L14.4571 6.79615" stroke="#FF6D23" stroke-linecap="round" stroke-linejoin="round"/>
<path d="M8.669 9.90179L8.67499 9.90134M8.86709 12.5611L8.87307 12.5606M11.3253 9.70393L11.3313 9.70348M6.0127 10.0997L6.01866 10.0992M6.21078 12.759L6.21675 12.7585" stroke="#FF6D23" stroke-linecap="round" stroke-linejoin="round"/>
</g>
<defs>
<clipPath id="clip0_481_133">
<rect width="16" height="16" fill="white" transform="translate(0 1.18852) rotate(-4.26)"/>
</clipPath>
</defs>
</svg>
