<svg width="18" height="18" viewBox="0 0 18 18" fill="none" xmlns="http://www.w3.org/2000/svg">
<g clip-path="url(#clip0_481_161)">
<path d="M6.72633 10.7156C6.58626 8.83517 6.51623 7.89497 7.05688 7.26726C7.59756 6.63958 8.53776 6.56954 10.4181 6.42948L11.083 6.37995C12.9634 6.23989 13.9036 6.16985 14.5313 6.71051C15.159 7.25119 15.229 8.19138 15.3691 10.0718L15.4186 10.7366C15.5586 12.617 15.6287 13.5572 15.088 14.1849C14.5473 14.8126 13.6071 14.8826 11.7268 15.0227L11.0619 15.0722C9.18154 15.2123 8.24134 15.2823 7.61363 14.7416C6.98595 14.201 6.91592 13.2608 6.77585 11.3804L6.72633 10.7156Z" stroke="#FF6D23" stroke-linecap="round" stroke-linejoin="round"/>
<path d="M11.7477 6.32994C11.5996 4.36411 11.4941 3.34802 10.8698 2.69339C10.7493 2.56697 10.6167 2.4527 10.4738 2.35222C9.69328 1.80338 8.60051 1.88477 6.4149 2.04758C4.2293 2.21038 3.1365 2.29178 2.44593 2.9502C2.31951 3.07073 2.20524 3.2034 2.10477 3.34629C1.55592 4.12678 1.63732 5.21958 1.80012 7.40518C1.96293 9.59079 2.04432 10.6836 2.70275 11.3742C2.82328 11.5006 2.95595 11.6148 3.09883 11.7153C3.83871 12.2356 4.85924 12.1895 6.82531 12.0446" stroke="#FF6D23" stroke-linecap="round" stroke-linejoin="round"/>
</g>
<defs>
<clipPath id="clip0_481_161">
<rect width="16" height="16" fill="white" transform="translate(0 1.18852) rotate(-4.26)"/>
</clipPath>
</defs>
</svg>
