<svg width="24" height="24" viewBox="0 0 24 24" fill="none" xmlns="http://www.w3.org/2000/svg">
<path d="M16.001 2V6M8.00098 2V6" stroke="#FF6D23" stroke-width="1.3357" stroke-linecap="round" stroke-linejoin="round"/>
<path d="M13.0005 4H11.0005C7.22925 4 5.34364 4 4.17206 5.17157C3.00049 6.34315 3.00049 8.22876 3.00049 12V14C3.00049 17.7712 3.00049 19.6569 4.17206 20.8284C5.34364 22 7.22925 22 11.0005 22H13.0005C16.7717 22 18.6574 22 19.8289 20.8284C21.0005 19.6569 21.0005 17.7712 21.0005 14V12C21.0005 8.22876 21.0005 6.34315 19.8289 5.17157C18.6574 4 16.7717 4 13.0005 4Z" stroke="#FF6D23" stroke-width="1.3357" stroke-linecap="round" stroke-linejoin="round"/>
<path d="M3.00049 10H21.0005" stroke="#FF6D23" stroke-width="1.3357" stroke-linecap="round" stroke-linejoin="round"/>
<path d="M11.9965 14H12.0055M11.9965 18H12.0055M15.992 14H16.001M8.00098 14H8.00995M8.00098 18H8.00995" stroke="#FF6D23" stroke-width="1.3357" stroke-linecap="round" stroke-linejoin="round"/>
</svg>
