<svg width="50" height="50" viewBox="0 0 50 50" fill="none" xmlns="http://www.w3.org/2000/svg">
<rect width="50" height="50" rx="16" fill="#C32AA3" fill-opacity="0.08"/>
<path d="M20.8366 25.064C20.8366 22.7615 22.7037 20.8945 25.0075 20.8945C27.3114 20.8945 29.1795 22.7615 29.1795 25.064C29.1795 27.3664 27.3114 29.2334 25.0075 29.2334C22.7037 29.2334 20.8366 27.3664 20.8366 25.064ZM18.5813 25.064C18.5813 28.6111 21.4583 31.4864 25.0075 31.4864C28.5567 31.4864 31.4338 28.6111 31.4338 25.064C31.4338 21.5169 28.5567 18.6416 25.0075 18.6416C21.4583 18.6416 18.5813 21.5169 18.5813 25.064ZM30.1864 18.387C30.1863 18.6838 30.2742 18.974 30.4391 19.2209C30.6041 19.4678 30.8385 19.6603 31.1129 19.774C31.3873 19.8877 31.6892 19.9175 31.9806 19.8597C32.2719 19.8019 32.5395 19.6591 32.7497 19.4493C32.9598 19.2395 33.1029 18.9721 33.161 18.681C33.219 18.3898 33.1894 18.0881 33.0759 17.8138C32.9623 17.5395 32.7699 17.305 32.523 17.14C32.2761 16.9749 31.9858 16.8868 31.6888 16.8867H31.6882C31.29 16.8869 30.9082 17.045 30.6267 17.3263C30.3451 17.6076 30.1867 17.9891 30.1864 18.387ZM19.9515 35.2447C18.7314 35.1891 18.0682 34.986 17.6275 34.8144C17.0432 34.5871 16.6263 34.3163 16.188 33.8789C15.7496 33.4414 15.4783 33.0252 15.2519 32.4412C15.08 32.001 14.8768 31.338 14.8213 30.1186C14.7607 28.8002 14.7486 28.4042 14.7486 25.0641C14.7486 21.724 14.7617 21.3291 14.8213 20.0096C14.8769 18.7902 15.0816 18.1285 15.2519 17.687C15.4793 17.103 15.7502 16.6864 16.188 16.2483C16.6257 15.8103 17.0422 15.5391 17.6275 15.3128C18.068 15.1411 18.7314 14.9379 19.9515 14.8825C21.2707 14.8219 21.667 14.8098 25.0075 14.8098C28.3481 14.8098 28.7448 14.8229 30.065 14.8825C31.2852 14.938 31.9473 15.1427 32.3891 15.3128C32.9734 15.5391 33.3903 15.8109 33.8286 16.2483C34.2669 16.6858 34.5372 17.103 34.7647 17.687C34.9365 18.1272 35.1398 18.7902 35.1952 20.0096C35.2559 21.3291 35.268 21.724 35.268 25.0641C35.268 28.4042 35.2559 28.7991 35.1952 30.1186C35.1397 31.338 34.9354 32.0008 34.7647 32.4412C34.5372 33.0252 34.2663 33.4418 33.8286 33.8789C33.3909 34.3159 32.9734 34.5871 32.3891 34.8144C31.9486 34.9861 31.2852 35.1892 30.065 35.2447C28.7459 35.3053 28.3496 35.3174 25.0075 35.3174C21.6655 35.3174 21.2703 35.3053 19.9515 35.2447ZM19.8479 12.6324C18.5156 12.693 17.6052 12.9041 16.8102 13.2133C15.9868 13.5326 15.2898 13.961 14.5933 14.656C13.8967 15.351 13.4692 16.0487 13.1498 16.8716C12.8404 17.6666 12.6291 18.576 12.5685 19.9075C12.5068 21.241 12.4927 21.6674 12.4927 25.064C12.4927 28.4606 12.5068 28.8869 12.5685 30.2205C12.6291 31.5521 12.8404 32.4613 13.1498 33.2564C13.4692 34.0788 13.8968 34.7773 14.5933 35.472C15.2897 36.1667 15.9868 36.5945 16.8102 36.9147C17.6067 37.2238 18.5156 37.435 19.8479 37.4956C21.183 37.5562 21.6089 37.5713 25.0075 37.5713C28.4062 37.5713 28.8328 37.5572 30.1672 37.4956C31.4995 37.435 32.4093 37.2238 33.2049 36.9147C34.0277 36.5945 34.7253 36.167 35.4218 35.472C36.1183 34.777 36.5449 34.0788 36.8653 33.2564C37.1747 32.4613 37.3869 31.552 37.4466 30.2205C37.5073 28.8859 37.5214 28.4606 37.5214 25.064C37.5214 21.6674 37.5073 21.241 37.4466 19.9075C37.3859 18.5759 37.1747 17.6661 36.8653 16.8716C36.5449 16.0492 36.1172 15.3521 35.4218 14.656C34.7264 13.9599 34.0277 13.5326 33.2059 13.2133C32.4093 12.9041 31.4994 12.692 30.1682 12.6324C28.8338 12.5717 28.4072 12.5566 25.0085 12.5566C21.6099 12.5566 21.183 12.5707 19.8479 12.6324Z" fill="url(#paint0_radial_486_1243)"/>
<path d="M20.8366 25.064C20.8366 22.7615 22.7037 20.8945 25.0075 20.8945C27.3114 20.8945 29.1795 22.7615 29.1795 25.064C29.1795 27.3664 27.3114 29.2334 25.0075 29.2334C22.7037 29.2334 20.8366 27.3664 20.8366 25.064ZM18.5813 25.064C18.5813 28.6111 21.4583 31.4864 25.0075 31.4864C28.5567 31.4864 31.4338 28.6111 31.4338 25.064C31.4338 21.5169 28.5567 18.6416 25.0075 18.6416C21.4583 18.6416 18.5813 21.5169 18.5813 25.064ZM30.1864 18.387C30.1863 18.6838 30.2742 18.974 30.4391 19.2209C30.6041 19.4678 30.8385 19.6603 31.1129 19.774C31.3873 19.8877 31.6892 19.9175 31.9806 19.8597C32.2719 19.8019 32.5395 19.6591 32.7497 19.4493C32.9598 19.2395 33.1029 18.9721 33.161 18.681C33.219 18.3898 33.1894 18.0881 33.0759 17.8138C32.9623 17.5395 32.7699 17.305 32.523 17.14C32.2761 16.9749 31.9858 16.8868 31.6888 16.8867H31.6882C31.29 16.8869 30.9082 17.045 30.6267 17.3263C30.3451 17.6076 30.1867 17.9891 30.1864 18.387ZM19.9515 35.2447C18.7314 35.1891 18.0682 34.986 17.6275 34.8144C17.0432 34.5871 16.6263 34.3163 16.188 33.8789C15.7496 33.4414 15.4783 33.0252 15.2519 32.4412C15.08 32.001 14.8768 31.338 14.8213 30.1186C14.7607 28.8002 14.7486 28.4042 14.7486 25.0641C14.7486 21.724 14.7617 21.3291 14.8213 20.0096C14.8769 18.7902 15.0816 18.1285 15.2519 17.687C15.4793 17.103 15.7502 16.6864 16.188 16.2483C16.6257 15.8103 17.0422 15.5391 17.6275 15.3128C18.068 15.1411 18.7314 14.9379 19.9515 14.8825C21.2707 14.8219 21.667 14.8098 25.0075 14.8098C28.3481 14.8098 28.7448 14.8229 30.065 14.8825C31.2852 14.938 31.9473 15.1427 32.3891 15.3128C32.9734 15.5391 33.3903 15.8109 33.8286 16.2483C34.2669 16.6858 34.5372 17.103 34.7647 17.687C34.9365 18.1272 35.1398 18.7902 35.1952 20.0096C35.2559 21.3291 35.268 21.724 35.268 25.0641C35.268 28.4042 35.2559 28.7991 35.1952 30.1186C35.1397 31.338 34.9354 32.0008 34.7647 32.4412C34.5372 33.0252 34.2663 33.4418 33.8286 33.8789C33.3909 34.3159 32.9734 34.5871 32.3891 34.8144C31.9486 34.9861 31.2852 35.1892 30.065 35.2447C28.7459 35.3053 28.3496 35.3174 25.0075 35.3174C21.6655 35.3174 21.2703 35.3053 19.9515 35.2447ZM19.8479 12.6324C18.5156 12.693 17.6052 12.9041 16.8102 13.2133C15.9868 13.5326 15.2898 13.961 14.5933 14.656C13.8967 15.351 13.4692 16.0487 13.1498 16.8716C12.8404 17.6666 12.6291 18.576 12.5685 19.9075C12.5068 21.241 12.4927 21.6674 12.4927 25.064C12.4927 28.4606 12.5068 28.8869 12.5685 30.2205C12.6291 31.5521 12.8404 32.4613 13.1498 33.2564C13.4692 34.0788 13.8968 34.7773 14.5933 35.472C15.2897 36.1667 15.9868 36.5945 16.8102 36.9147C17.6067 37.2238 18.5156 37.435 19.8479 37.4956C21.183 37.5562 21.6089 37.5713 25.0075 37.5713C28.4062 37.5713 28.8328 37.5572 30.1672 37.4956C31.4995 37.435 32.4093 37.2238 33.2049 36.9147C34.0277 36.5945 34.7253 36.167 35.4218 35.472C36.1183 34.777 36.5449 34.0788 36.8653 33.2564C37.1747 32.4613 37.3869 31.552 37.4466 30.2205C37.5073 28.8859 37.5214 28.4606 37.5214 25.064C37.5214 21.6674 37.5073 21.241 37.4466 19.9075C37.3859 18.5759 37.1747 17.6661 36.8653 16.8716C36.5449 16.0492 36.1172 15.3521 35.4218 14.656C34.7264 13.9599 34.0277 13.5326 33.2059 13.2133C32.4093 12.9041 31.4994 12.692 30.1682 12.6324C28.8338 12.5717 28.4072 12.5566 25.0085 12.5566C21.6099 12.5566 21.183 12.5707 19.8479 12.6324Z" fill="url(#paint1_radial_486_1243)"/>
<defs>
<radialGradient id="paint0_radial_486_1243" cx="0" cy="0" r="1" gradientUnits="userSpaceOnUse" gradientTransform="translate(15.818 37.6895) scale(32.6742 32.6546)">
<stop offset="0.09" stop-color="#FA8F21"/>
<stop offset="0.78" stop-color="#D82D7E"/>
</radialGradient>
<radialGradient id="paint1_radial_486_1243" cx="0" cy="0" r="1" gradientUnits="userSpaceOnUse" gradientTransform="translate(27.6721 38.8102) scale(25.7518 25.7363)">
<stop offset="0.64" stop-color="#8C3AAA" stop-opacity="0"/>
<stop offset="1" stop-color="#8C3AAA"/>
</radialGradient>
</defs>
</svg>
