<svg width="305" height="293" viewBox="0 0 305 293" fill="none" xmlns="http://www.w3.org/2000/svg">
<path fill-rule="evenodd" clip-rule="evenodd" d="M55.8714 0.488476C47.3494 1.46698 36.5119 3.96748 32.6259 5.85198C29.5804 7.32898 28.2514 9.51697 28.7759 12.192C29.1989 14.351 32.9629 26.3345 33.9469 28.656C35.5539 32.4465 37.5934 32.715 46.8139 30.3485C56.8119 27.7825 57.3169 27.725 69.5639 27.7645C81.2009 27.802 81.3719 27.818 87.3139 29.4275C97.1329 32.087 103.827 34.933 109.814 38.994C123.457 48.2475 132.67 63.54 138.51 86.6255C141.579 98.754 142.307 104.779 142.27 117.726C142.244 126.88 142.065 129.527 141.207 133.497C139.318 142.233 135.256 151.247 127.659 163.561C124.495 168.69 123.394 172.374 123.35 177.976C123.316 182.389 123.431 182.962 124.969 186.046C127.484 191.088 132.288 195.258 139.259 198.451C145.083 201.119 148.514 201.974 155.817 202.578C161.834 203.076 163.846 203.039 169.828 202.318C178.691 201.25 180.923 200.864 185.642 199.587C190.833 198.181 192.267 197.351 193.356 195.123C195.127 191.5 194.803 181.759 192.758 177.142C191.931 175.277 189.499 173.105 187.745 172.664C186.367 172.318 185.977 172.366 175.314 174.19C169.979 175.102 166.009 175.471 161.564 175.467C154.657 175.462 153.064 175.212 153.064 174.135C153.064 173.737 154.151 171.457 155.481 169.069C156.81 166.68 158.334 163.939 158.867 162.976C161.081 158.979 165.313 147.817 166.639 142.476C167.606 138.581 168.577 132.272 169.036 126.904C169.792 118.063 168.55 96.789 166.865 89.7265C166.734 89.1765 166.246 86.9265 165.782 84.7265C162.148 67.5245 154.831 49.739 146.191 37.106C141.723 30.574 130.806 19.612 125.01 15.8385C113.531 8.36347 102.529 4.12597 87.5689 1.41697C81.4554 0.309973 62.3089 -0.251024 55.8714 0.488476ZM227.564 0.550476C216.562 1.69298 204.798 5.17498 202.722 7.90348C201.741 9.19298 201.953 12.0575 203.325 16.0535C204.018 18.0735 205.148 21.375 205.834 23.3895C208.959 32.561 210.013 33.2585 217.236 30.934C232.007 26.1795 245.999 26.2135 261.271 31.0415C264.308 32.0015 267.41 32.244 268.338 31.594C269.751 30.6035 271.185 27.5465 273.557 20.472C274.986 16.212 276.185 11.9215 276.223 10.938C276.39 6.62198 273.248 4.89247 260.564 2.31747C249.224 0.0154743 238.333 -0.567524 227.564 0.550476ZM58.3139 73.734C49.8714 75.5295 44.1129 78.3505 37.9809 83.6935C31.8214 89.061 26.3309 97.846 24.0549 105.976C23.4774 108.039 22.8744 111.899 22.7144 114.554C22.4329 119.232 22.4629 119.421 23.6864 120.644C25.2374 122.195 27.6434 122.916 37.3139 124.726C43.1539 125.819 45.7279 125.717 47.3419 124.329C48.4849 123.346 48.8029 122.419 49.5674 117.84C51.5284 106.095 56.6309 100.493 65.3779 100.481C69.4884 100.476 71.8564 101.3 74.9359 103.809C78.7509 106.918 80.6379 111.27 81.5614 119.091C82.3404 125.689 83.2164 126.331 90.2874 125.484C96.7459 124.71 105.569 122.4 106.811 121.158C107.573 120.395 108.556 117.362 108.561 115.756C108.565 114.445 107.634 109.396 106.713 105.726C104.615 97.3725 98.7464 88.0775 92.0539 82.508C83.1329 75.0835 69.1104 71.437 58.3139 73.734ZM232.814 73.6025C217.592 76.577 206.04 86.4195 199.832 101.704C198.371 105.301 197.403 110.662 197.358 115.395C197.315 119.945 197.35 120.094 198.73 121.197C200.498 122.611 204.955 123.78 213.261 125.008C222.091 126.313 223.131 125.717 224.108 118.792C225.163 111.305 226.685 107.443 229.765 104.432C235.452 98.8715 245.471 99.128 250.748 104.969C251.723 106.048 252.994 107.859 253.573 108.994C254.708 111.218 256.535 118.752 256.553 121.278C256.56 122.221 257.045 123.349 257.79 124.153C258.868 125.317 259.395 125.475 262.165 125.466C266.545 125.453 276.964 123.412 280.215 121.93C281.895 121.165 283.064 118.663 283.064 115.831C283.064 112.061 281.614 105.464 279.745 100.726C277.393 94.765 274.271 90.146 269.083 84.955C265.717 81.5865 263.862 80.1955 260.314 78.379C251.218 73.7225 241.15 71.9735 232.814 73.6025ZM284.072 182.49C281.774 183.028 279.868 185.192 276.364 191.242C272.965 197.11 266.678 206.644 264.411 209.367C263.532 210.423 262.139 212.16 261.314 213.227C260.489 214.295 257.789 217.341 255.314 219.996C233.371 243.536 205.392 258.176 172.564 263.296C163.727 264.674 139.762 264.571 130.814 263.116C113.712 260.336 95.4789 254.092 82.5639 246.592C70.8804 239.808 62.6479 233.522 53.3529 224.287C44.9849 215.972 41.6729 212.19 38.4134 207.226C37.6909 206.126 36.3819 204.214 35.5044 202.976C33.5944 200.283 28.8929 192.467 26.5209 188.042C25.5819 186.291 24.1444 184.294 23.3259 183.604C21.9219 182.421 21.5969 182.366 17.5759 182.626C13.5839 182.884 9.05544 184.059 3.66994 186.234C-1.91906 188.491 -1.12906 195.388 6.07194 207.198C7.71744 209.897 9.06394 212.173 9.06394 212.255C9.06394 212.338 11.1164 215.402 13.6254 219.066C30.4474 243.629 52.3319 262.619 78.3139 275.199C88.8919 280.32 93.5949 282.174 103.314 285.055C113.691 288.131 120.304 289.515 133.953 291.469C140.261 292.373 156.726 292.645 164.064 291.968C180.064 290.491 186.496 289.319 200.93 285.247C211.265 282.332 230.086 274.04 236.904 269.399C238.053 268.617 239.124 267.976 239.282 267.976C239.949 267.976 251.146 260.343 255.064 257.217C268.554 246.456 276.085 238.768 286.699 224.922C289.869 220.787 297.564 209.28 297.564 208.674C297.564 208.512 298.016 207.745 298.569 206.969C299.122 206.193 300.63 203.458 301.92 200.892C305.541 193.691 305.451 188.224 301.68 186.293C300.089 185.478 290.124 182.675 287.564 182.322C286.601 182.19 285.03 182.265 284.072 182.49Z" fill="#FF8040"/>
</svg>
