<svg width="70" height="70" viewBox="0 0 70 70" fill="none" xmlns="http://www.w3.org/2000/svg">
<path d="M42.2915 8.75H22.9598C21.5555 8.75 20.4165 9.88896 20.4165 11.2933V21.8794H42.2915V8.75Z" fill="#169154"/>
<path d="M20.4165 48.2041V58.707C20.4165 60.1114 21.5555 61.2503 22.9584 61.2503H42.2915V48.2041H20.4165Z" fill="#18482A"/>
<path d="M20.4165 21.8789H42.2915V35.0068H20.4165V21.8789Z" fill="#0C8045"/>
<path d="M20.4165 35.0068H42.2915V48.2048H20.4165V35.0068Z" fill="#17472A"/>
<path d="M61.6232 8.75H42.2915V21.8794H64.1665V11.2933C64.1665 9.88896 63.0275 8.75 61.6232 8.75Z" fill="#29C27F"/>
<path d="M42.2915 48.2041V61.2503H61.6246C63.0275 61.2503 64.1665 60.1114 64.1665 58.7085V48.2056L42.2915 48.2041Z" fill="#27663F"/>
<path d="M42.2915 21.8789H64.1665V35.0068H42.2915V21.8789Z" fill="#19AC65"/>
<path d="M42.2915 35.0068H64.1665V48.2048H42.2915V35.0068Z" fill="#129652"/>
<path d="M32.5487 49.5837H8.28495C6.93162 49.5837 5.8335 48.4855 5.8335 47.1322V22.8684C5.8335 21.5151 6.93162 20.417 8.28495 20.417H32.5487C33.902 20.417 35.0002 21.5151 35.0002 22.8684V47.1322C35.0002 48.4855 33.902 49.5837 32.5487 49.5837Z" fill="#0C7238"/>
<path d="M14.3019 27.708H17.7815L20.6048 33.1826L23.5885 27.708H26.8392L22.3606 34.9997L26.9413 42.2913H23.5127L20.4356 36.5601L17.3717 42.2913H13.8921L18.5485 34.9734L14.3019 27.708Z" fill="white"/>
</svg>
