<svg width="22" height="22" viewBox="0 0 22 22" fill="none" xmlns="http://www.w3.org/2000/svg">
<path d="M9.32963 3.14191C9.35103 2.94863 9.43936 2.76891 9.57933 2.63389C9.71929 2.49888 9.90206 2.41706 10.096 2.40261C10.2899 2.38817 10.4828 2.442 10.6412 2.55479C10.7996 2.66759 10.9136 2.83223 10.9634 3.02021L12.1809 7.57402C12.2674 7.89778 12.4495 8.18795 12.7034 8.40666C12.9573 8.62536 13.2712 8.76244 13.6042 8.80002L18.2882 9.32938C18.4815 9.35079 18.6612 9.43912 18.7962 9.57908C18.9312 9.71904 19.013 9.90181 19.0275 10.0957C19.0419 10.2897 18.9881 10.4826 18.8753 10.641C18.7625 10.7994 18.5978 10.9134 18.4099 10.9632L13.8561 12.1807C13.5323 12.2671 13.2421 12.4492 13.0234 12.7031C12.8047 12.957 12.6676 13.271 12.6301 13.604L12.1007 18.2879C12.0793 18.4812 11.991 18.6609 11.851 18.7959C11.711 18.931 11.5283 19.0128 11.3343 19.0272C11.1404 19.0417 10.9475 18.9878 10.7891 18.875C10.6307 18.7622 10.5167 18.5976 10.4669 18.4096L9.24942 13.8558C9.16293 13.532 8.98085 13.2419 8.72694 13.0232C8.47303 12.8045 8.15909 12.6674 7.82609 12.6298L3.14216 12.1005C2.94887 12.079 2.76916 11.9907 2.63414 11.8508C2.49912 11.7108 2.41731 11.528 2.40286 11.3341C2.38842 11.1402 2.44225 10.9473 2.55504 10.7889C2.66783 10.6304 2.83248 10.5165 3.02046 10.4666L7.57427 9.24918C7.89803 9.16269 8.1882 8.9806 8.4069 8.72669C8.62561 8.47278 8.76269 8.15884 8.80026 7.82584L9.32963 3.14191Z" stroke="#FF6D23" stroke-width="1.66667" stroke-linecap="round" stroke-linejoin="round"/>
<path d="M16.7446 1.90948L16.9922 5.2336" stroke="#FF6D23" stroke-width="1.66667" stroke-linecap="round" stroke-linejoin="round"/>
<path d="M18.5302 3.448L15.2061 3.69561" stroke="#FF6D23" stroke-width="1.66667" stroke-linecap="round" stroke-linejoin="round"/>
<path d="M4.68604 19.5209C5.60397 19.4526 6.29267 18.653 6.2243 17.7351C6.15592 16.8171 5.35636 16.1284 4.43843 16.1968C3.5205 16.2652 2.8318 17.0647 2.90017 17.9827C2.96855 18.9006 3.76811 19.5893 4.68604 19.5209Z" stroke="#FF6D23" stroke-width="1.66667" stroke-linecap="round" stroke-linejoin="round"/>
</svg>
