<svg width="50" height="50" viewBox="0 0 50 50" fill="none" xmlns="http://www.w3.org/2000/svg">
<rect width="50" height="50" rx="16" fill="#0088CC" fill-opacity="0.1"/>
<path d="M13.9101 24.1141C13.9101 24.1141 24.0824 19.8297 27.6104 18.321C28.9628 17.7176 33.5492 15.7865 33.5492 15.7865C33.5492 15.7865 35.666 14.9418 35.4896 16.9934C35.4307 17.8383 34.9603 20.7951 34.49 23.9934C33.7843 28.5193 33.02 33.4675 33.02 33.4675C33.02 33.4675 32.9024 34.8555 31.9028 35.0968C30.9032 35.3382 29.2568 34.2521 28.9628 34.0106C28.7275 33.8296 24.5528 31.1141 23.024 29.7865C22.6124 29.4244 22.142 28.7004 23.0828 27.8555C25.1996 25.8641 27.728 23.39 29.2568 21.8211C29.9624 21.0969 30.6679 19.4073 27.728 21.4589C23.5532 24.4158 19.4373 27.1917 19.4373 27.1917C19.4373 27.1917 18.4964 27.7951 16.7325 27.252C14.9684 26.709 12.9104 25.9848 12.9104 25.9848C12.9104 25.9848 11.4993 25.0796 13.9101 24.1141Z" fill="#0088CC"/>
</svg>
