<svg width="24" height="24" viewBox="0 0 24 24" fill="none" xmlns="http://www.w3.org/2000/svg">
<path d="M3.80037 8.50948C3.65627 7.86038 3.6784 7.18541 3.8647 6.54714C4.051 5.90887 4.39544 5.32797 4.86609 4.8583C5.33674 4.38864 5.91836 4.04541 6.55702 3.86045C7.19568 3.67548 7.8707 3.65477 8.51949 3.80023C8.8766 3.24174 9.36855 2.78212 9.94999 2.46376C10.5314 2.14539 11.1837 1.97852 11.8466 1.97852C12.5095 1.97852 13.1617 2.14539 13.7432 2.46376C14.3246 2.78212 14.8166 3.24174 15.1737 3.80023C15.8234 3.65414 16.4996 3.67476 17.1393 3.86017C17.779 4.04558 18.3614 4.38977 18.8323 4.8607C19.3032 5.33164 19.6474 5.91404 19.8328 6.55371C20.0183 7.19339 20.0389 7.86957 19.8928 8.51936C20.4513 8.87646 20.9109 9.36841 21.2293 9.94985C21.5476 10.5313 21.7145 11.1835 21.7145 11.8464C21.7145 12.5093 21.5476 13.1616 21.2293 13.743C20.9109 14.3245 20.4513 14.8164 19.8928 15.1735C20.0382 15.8223 20.0175 16.4973 19.8326 17.136C19.6476 17.7747 19.3044 18.3563 18.8347 18.8269C18.365 19.2976 17.7841 19.642 17.1459 19.8283C16.5076 20.0146 15.8326 20.0367 15.1835 19.8926C14.8269 20.4533 14.3346 20.9149 13.7521 21.2347C13.1697 21.5544 12.516 21.7221 11.8515 21.7221C11.1871 21.7221 10.5333 21.5544 9.9509 21.2347C9.36847 20.9149 8.87613 20.4533 8.51949 19.8926C7.8707 20.0381 7.19568 20.0174 6.55702 19.8324C5.91836 19.6475 5.33674 19.3042 4.86609 18.8346C4.39544 18.3649 4.051 17.784 3.8647 17.1457C3.6784 16.5075 3.65627 15.8325 3.80037 15.1834C3.23759 14.8272 2.77402 14.3345 2.4528 13.7511C2.13158 13.1676 1.96313 12.5125 1.96313 11.8464C1.96313 11.1804 2.13158 10.5252 2.4528 9.94179C2.77402 9.35836 3.23759 8.86565 3.80037 8.50948Z" stroke="#009966" stroke-width="1.97453" stroke-linecap="round" stroke-linejoin="round"/>
<path d="M8.88525 11.8466L10.8598 13.8211L14.8088 9.87207" stroke="#009966" stroke-width="1.97453" stroke-linecap="round" stroke-linejoin="round"/>
</svg>
