<svg width="24" height="24" viewBox="0 0 24 24" fill="none" xmlns="http://www.w3.org/2000/svg">
<g clip-path="url(#clip0_1211_2815)">
<g clip-path="url(#clip1_1211_2815)">
<mask id="mask0_1211_2815" style="mask-type:luminance" maskUnits="userSpaceOnUse" x="5" y="5" width="14" height="14">
<path d="M18.545 5.45459H5.4541V18.5455H18.545V5.45459Z" fill="white"/>
</mask>
<g mask="url(#mask0_1211_2815)">
<path d="M17.576 5.45459H6.42059C5.88621 5.45459 5.4541 5.87644 5.4541 6.39806V17.5995C5.4541 18.1211 5.88621 18.5455 6.42059 18.5455H17.576C18.1103 18.5455 18.545 18.1211 18.545 17.602V6.39806C18.545 5.87644 18.1103 5.45459 17.576 5.45459ZM9.3379 16.61H7.39472V10.3611H9.3379V16.61ZM8.36634 9.50972C7.74245 9.50972 7.23877 9.00599 7.23877 8.38472C7.23877 7.76339 7.74245 7.25972 8.36634 7.25972C8.98761 7.25972 9.49134 7.76339 9.49134 8.38472C9.49134 9.00343 8.98761 9.50972 8.36634 9.50972ZM16.6095 16.61H14.6688V13.5725C14.6688 12.8489 14.6561 11.9157 13.6589 11.9157C12.649 11.9157 12.4956 12.7057 12.4956 13.5214V16.61H10.5575V10.3611H12.4188V11.2151H12.4444C12.7027 10.7242 13.3368 10.2052 14.2803 10.2052C16.2464 10.2052 16.6095 11.4989 16.6095 13.1813V16.61Z" fill="#B0AFA3"/>
</g>
</g>
</g>
<defs>
<clipPath id="clip0_1211_2815">
<rect width="24" height="24" fill="white"/>
</clipPath>
<clipPath id="clip1_1211_2815">
<rect width="24" height="24" fill="white"/>
</clipPath>
</defs>
</svg>
