<svg width="24" height="24" viewBox="0 0 24 24" fill="none" xmlns="http://www.w3.org/2000/svg">
<g clip-path="url(#clip0_1211_2806)">
<g clip-path="url(#clip1_1211_2806)">
<path d="M18.0415 7.09082H5.95761C5.82408 7.09082 5.69601 7.14542 5.60159 7.24257C5.50717 7.33977 5.4541 7.47155 5.4541 7.609V16.4181C5.4541 16.6929 5.56019 16.9566 5.74903 17.1509C5.93787 17.3453 6.19401 17.4545 6.46112 17.4545H17.538C17.8051 17.4545 18.0612 17.3453 18.2501 17.1509C18.4389 16.9566 18.545 16.6929 18.545 16.4181V7.609C18.545 7.47155 18.4919 7.33977 18.3975 7.24257C18.3031 7.14542 18.175 7.09082 18.0415 7.09082ZM11.9996 12.6062L7.25219 8.12718H16.7469L11.9996 12.6062ZM10.1561 12.2726L6.46112 15.758V8.78724L10.1561 12.2726ZM10.9013 12.9754L11.6566 13.6911C11.7495 13.7789 11.8709 13.8276 11.997 13.8276C12.1232 13.8276 12.2446 13.7789 12.3375 13.6911L13.0928 12.9754L16.7431 16.4181H7.25219L10.9013 12.9754ZM13.843 12.2726L17.538 8.78658V15.7587L13.843 12.2726Z" fill="#B0AFA3"/>
</g>
</g>
<defs>
<clipPath id="clip0_1211_2806">
<rect width="24" height="24" fill="white"/>
</clipPath>
<clipPath id="clip1_1211_2806">
<rect width="24" height="24" fill="white"/>
</clipPath>
</defs>
</svg>
