<svg width="250" height="250" viewBox="0 0 250 250" fill="none" xmlns="http://www.w3.org/2000/svg">
<path fill-rule="evenodd" clip-rule="evenodd" d="M26.78 5.00432C29.9697 3.39279 38.8654 1.25448 45.8604 0.41772C51.1444 -0.214663 66.8603 0.265074 71.8784 1.21173C84.1578 3.52833 93.1885 7.15203 102.611 13.5443C107.369 16.7712 116.329 26.1453 119.996 31.7312C127.088 42.5343 133.094 57.7436 136.077 72.4539C136.458 74.3352 136.859 76.2593 136.967 76.7296C138.35 82.7691 139.369 100.962 138.749 108.522C138.371 113.112 137.574 118.508 136.781 121.839C135.692 126.406 132.219 135.951 130.401 139.369C129.964 140.192 128.713 142.537 127.622 144.579C126.531 146.621 125.638 148.571 125.638 148.912C125.638 149.833 126.946 150.047 132.615 150.051C136.264 150.054 139.523 149.739 143.901 148.959C152.654 147.399 152.974 147.358 154.105 147.654C155.545 148.031 157.541 149.889 158.22 151.483C159.898 155.432 160.165 163.761 158.711 166.86C157.817 168.765 156.64 169.475 152.379 170.677C148.506 171.769 146.674 172.099 139.399 173.012C134.488 173.629 132.837 173.66 127.898 173.235C121.903 172.718 119.087 171.987 114.307 169.706C108.585 166.975 104.641 163.409 102.577 159.097C101.315 156.46 101.221 155.97 101.249 152.197C101.284 147.406 102.188 144.255 104.785 139.87C111.021 129.339 114.355 121.631 115.906 114.16C116.61 110.765 116.757 108.501 116.778 100.674C116.809 89.6022 116.211 84.4495 113.692 74.0778C108.899 54.3362 101.336 41.2588 90.1375 33.3457C85.2233 29.8729 79.7287 27.4392 71.6691 25.1649C66.7917 23.7885 66.6514 23.7749 57.0995 23.7428C47.0469 23.709 46.6324 23.7582 38.4258 25.9525C30.8575 27.9762 29.1834 27.7466 27.8643 24.5052C27.0567 22.5199 23.9671 12.2722 23.6199 10.426C23.1894 8.13844 24.2802 6.26738 26.78 5.00432ZM31.1755 71.5705C36.2088 67.0014 40.9355 64.5891 47.8653 63.0536C56.7273 61.0894 68.2372 64.2077 75.5598 70.5567C81.0531 75.3195 85.8701 83.2681 87.5922 90.412C88.3485 93.55 89.1123 97.8681 89.109 98.9892C89.1053 100.362 88.2985 102.956 87.6726 103.608C86.6531 104.67 79.411 106.646 74.1098 107.308C68.3057 108.032 67.5867 107.483 66.9473 101.841C66.1893 95.1526 64.6404 91.4309 61.5089 88.7727C58.9812 86.6271 57.0375 85.9221 53.6635 85.9268C46.4838 85.937 42.2956 90.7276 40.686 100.771C40.0584 104.687 39.7974 105.479 38.8592 106.32C37.5344 107.507 35.4216 107.595 30.628 106.66C22.6903 105.112 20.7154 104.495 19.4423 103.169C18.438 102.123 18.4134 101.962 18.6445 97.9609C18.7758 95.6904 19.2708 92.3896 19.7448 90.6258C21.613 83.673 26.1197 76.1605 31.1755 71.5705ZM164.027 86.9722C169.122 73.9016 178.604 65.4848 191.098 62.9412C197.941 61.5481 206.205 63.0438 213.671 67.0258C216.583 68.5792 218.106 69.7687 220.869 72.6493C225.127 77.0884 227.69 81.0383 229.621 86.1363C231.155 90.188 232.345 95.829 232.345 99.0529C232.345 101.475 231.386 103.614 230.007 104.269C227.338 105.536 218.786 107.281 215.19 107.293C212.917 107.3 212.484 107.165 211.599 106.17C210.988 105.482 210.59 104.518 210.584 103.711C210.57 101.551 209.069 95.1085 208.138 93.2062C207.663 92.2361 206.619 90.6874 205.819 89.7647C201.488 84.7693 193.264 84.55 188.596 89.305C186.068 91.8803 184.819 95.1825 183.952 101.585C183.151 107.507 182.297 108.017 175.049 106.901C168.231 105.85 164.573 104.851 163.122 103.642C161.989 102.698 161.96 102.571 161.995 98.6805C162.032 94.6326 162.827 90.0482 164.027 86.9722ZM226.845 163.541C229.721 158.367 231.286 156.517 233.172 156.056C233.958 155.864 235.248 155.8 236.038 155.913C238.14 156.215 246.319 158.612 247.625 159.309C250.72 160.96 250.794 165.635 247.822 171.793C246.763 173.988 245.525 176.326 245.071 176.99C244.618 177.654 244.247 178.31 244.247 178.448C244.247 178.966 237.931 188.806 235.329 192.343C226.616 204.183 220.435 210.757 209.362 219.96C206.146 222.632 196.955 229.16 196.408 229.16C196.278 229.16 195.399 229.708 194.456 230.377C188.859 234.346 173.411 241.436 164.927 243.929C153.08 247.411 147.801 248.414 134.667 249.676C128.644 250.256 115.129 250.023 109.952 249.25C98.7479 247.579 93.3202 246.395 84.8022 243.765C76.8246 241.302 72.9643 239.716 64.2817 235.336C42.9551 224.579 24.9919 208.34 11.184 187.334C9.1246 184.201 7.43987 181.581 7.43987 181.51C7.43987 181.44 6.33463 179.494 4.98397 177.186C-0.926754 167.086 -1.5752 161.189 3.01236 159.258C7.43289 157.398 11.15 156.393 14.4267 156.173C17.7272 155.95 17.994 155.998 19.1464 157.009C19.8182 157.599 20.9982 159.307 21.7689 160.805C23.7159 164.589 27.575 171.272 29.1428 173.575C29.863 174.634 30.9375 176.269 31.5305 177.21C34.206 181.455 36.9246 184.689 43.7932 191.799C51.4227 199.697 58.1801 205.072 67.7702 210.874C78.3711 217.287 93.3371 222.626 107.375 225.004C114.719 226.248 134.391 226.336 141.644 225.158C168.59 220.779 191.556 208.26 209.567 188.13C211.598 185.859 213.815 183.254 214.492 182.342C215.169 181.429 216.313 179.943 217.034 179.041C218.895 176.712 224.056 168.559 226.845 163.541Z" fill="#FF8040"/>
<path fill-rule="evenodd" clip-rule="evenodd" d="M186.789 0.47074C177.758 1.44775 168.102 4.42538 166.398 6.75866C165.593 7.86138 165.767 10.311 166.893 13.7281C167.462 15.4555 168.39 18.2788 168.953 20.0015C171.518 27.8445 172.383 28.441 178.312 26.4532C190.436 22.3874 201.921 22.4165 214.457 26.5451C216.95 27.3661 219.496 27.5734 220.257 27.0176C221.417 26.1706 222.595 23.5564 224.542 17.5066C225.714 13.8637 226.699 10.1947 226.73 9.35361C226.866 5.66279 224.288 4.1838 213.876 1.98179C204.568 0.0132328 195.629 -0.485318 186.789 0.47074Z" fill="#FF8040"/>
</svg>
