<svg width="78" height="45" viewBox="0 0 78 45" fill="none" xmlns="http://www.w3.org/2000/svg">
<path d="M19.9814 30.933C20.9364 30.9041 21.9564 30.9049 22.9142 30.9239C28.9556 31.0478 35.1147 30.7582 41.1434 30.9429C41.278 31.1709 41.4148 31.4332 41.544 31.6673C43.0856 31.2097 43.9712 30.7726 45.553 31.6331C46.4546 32.1212 47.1242 32.9497 47.4116 33.9341C47.7764 35.1458 47.6389 36.4541 47.0285 37.5639C46.1824 39.0949 44.8408 39.868 43.2141 40.3362C41.9363 40.5727 40.3369 40.5217 39.0074 40.5202C37.2325 42.5628 35.2813 44.1029 32.5751 44.6722C29.8995 45.2347 27.1488 44.6532 24.8687 43.1709C22.3225 41.5092 20.5436 38.9018 19.926 35.9243C19.782 35.2196 19.6918 34.445 19.7023 33.7259C19.7172 32.7065 19.3943 31.83 19.9814 30.933Z" fill="#717171"/>
<path d="M43.2319 33.2027C46.3994 32.9344 46.6624 37.1313 43.0031 38.3909C42.3608 38.5125 41.2388 38.698 40.6885 38.3323C40.563 37.9454 41.4053 35.5592 41.5604 35.0195C41.8515 34.0077 42.3296 33.6368 43.2319 33.2027Z" fill="#E6E6E5"/>
<path d="M66.709 23.9691C68.5493 23.9599 70.3896 23.9622 72.2299 23.9752C72.6944 23.9805 75.2295 23.8626 75.4241 24.3271C75.6521 24.8706 75.8323 27.779 75.1527 28.0679C73.491 28.7733 66.2689 27.7281 65.0808 28.5582C64.7083 29.1184 64.9113 31.4597 65.0344 32.1621C67.1453 32.7824 71.0312 31.9713 73.2729 32.4312C73.4606 32.47 73.8338 32.6273 73.8688 32.8257C74.0376 33.4133 74.0125 35.7478 73.77 36.1705C73.3709 36.866 71.4052 36.5992 70.5645 36.6364C69.52 36.6836 68.0507 36.5498 66.9682 36.581C66.5319 36.5939 65.1439 36.4312 65.0207 36.9595C64.7889 37.9546 64.82 39.3913 65.0359 40.3924C65.0922 40.6509 65.717 40.6995 65.9245 40.7238C67.5368 40.7733 74.5195 40.3711 75.4256 41.0157C75.754 41.6148 75.6658 43.2195 75.5662 43.9097C75.5221 44.213 75.399 44.6242 75.1094 44.7854C74.5567 45.0917 63.2884 45.015 61.6426 44.8926C61.3181 44.8683 61.0186 44.7983 60.7069 44.7086C60.5518 43.8284 60.5944 42.5946 60.5936 41.6809L60.5914 37.4301L60.5853 29.3206C60.5883 28.1614 60.469 25.2636 60.7822 24.2967C61.2823 23.8163 65.6585 23.9934 66.709 23.9691Z" fill="#717171"/>
<path d="M15.7165 0.550827C17.7591 0.355388 18.9733 0.412859 18.7138 2.80905C18.6456 3.43884 18.6714 4.51295 18.6683 5.16593L18.6642 11.9177C18.6658 14.4156 18.6844 16.9111 18.7009 19.4083C18.7055 20.1054 18.7039 21.4516 17.7492 21.4448C17.2058 21.441 14.9125 21.6819 14.6552 21.2198C13.8377 19.7511 14.434 17.3049 14.3467 15.6501C14.3019 14.7204 14.5176 13.7968 13.9168 13.1568C13.2304 12.935 7.55344 12.9309 6.72177 13.2386C5.51618 14.4779 7.48427 20.7013 5.66099 21.4204C4.80537 21.571 3.4983 21.5056 2.63744 21.4455C2.41722 21.2661 2.20423 21.1126 2.11271 20.8344C1.90982 20.2163 2.05813 10.1114 2.05851 8.57914C2.05904 6.33506 1.96296 4.06316 2.03821 1.82258C2.04673 1.56891 2.05129 1.19932 2.20309 0.983133C2.33802 0.790963 2.65781 0.691383 2.8762 0.64182C3.51517 0.496705 5.54613 0.394691 6.05148 0.811868C6.84362 1.46591 6.25436 6.35529 6.3772 7.57717C6.40791 7.88291 6.49715 8.46444 6.79824 8.63829C7.46321 9.02225 13.0461 8.83722 14.0816 8.65167C14.1113 8.64635 14.1409 8.64034 14.1705 8.63464C14.5343 7.11933 13.9155 1.47032 14.6203 0.815668C14.8923 0.562838 15.3675 0.579333 15.7165 0.550827Z" fill="#717171"/>
<path d="M61.5553 0.551861C62.1817 0.524723 63.7544 0.390023 64.2736 0.645666C65.9786 1.48587 64.009 8.09816 65.3439 8.74133C66.1116 8.66288 71.4022 1.73551 72.6344 0.602489C73.5139 0.498803 74.4648 0.515526 75.3527 0.503896C75.9904 0.49561 76.8638 0.469913 77.2105 1.1007C77.1535 2.165 71.2737 8.28052 70.2118 9.87314L70.1472 9.97075C71.5831 12.1794 73.5922 14.7789 75.1718 16.9192C78.2443 21.1411 79.0257 21.582 73.1391 21.433C71.8963 20.2107 70.2856 17.5243 69.1301 16.0486C68.3882 15.1016 68.167 14.5045 67.1355 13.7239C66.294 14.287 65.5901 15.2369 64.9873 16.0393C64.9045 17.5456 65.1477 19.3084 64.8581 20.7725C64.6255 21.9454 61.5614 21.4634 60.7123 21.1776C60.5382 20.2434 60.5929 18.5611 60.5922 17.5539L60.5899 11.8162L60.5831 4.75884C60.5846 3.61281 60.5762 2.46367 60.6044 1.31849C60.618 0.771018 61.1076 0.609253 61.5553 0.551861Z" fill="#717171"/>
<path d="M9.93737 23.8117C12.7034 23.4689 17.2696 25.4468 18.6026 27.9455C18.1479 28.9276 16.6535 30.2921 15.6771 30.771C15.3761 30.5863 14.9067 30.1781 14.6345 29.9348C13.564 28.9785 12.617 28.4175 11.1611 28.2594C9.53335 28.0755 7.89995 28.5536 6.62808 29.5859C4.01424 31.7144 3.63265 35.8686 5.82316 38.4243C6.89504 39.6535 8.41039 40.4068 10.0369 40.5193C12.2951 40.6676 13.7997 39.6489 15.3464 38.1514C15.5731 37.9325 15.7596 37.9705 16.0466 38.0032C16.6546 38.4745 18.4635 40.0921 18.594 40.8029C18.5448 40.9678 18.4926 41.1229 18.3789 41.2559C16.6621 43.2605 14.2172 44.5467 11.6465 44.8538C8.93329 45.1966 6.1957 44.4387 4.04602 42.7481C1.81704 40.9792 0.388807 38.3924 0.0801887 35.5638C-0.268186 32.7482 0.527689 29.9097 2.28963 27.6855C4.2904 25.2035 6.84267 24.1408 9.93737 23.8117Z" fill="#717171"/>
<path d="M49.3824 0.549666C52.3211 0.176806 56.8797 1.93886 58.2829 4.64102C57.6543 5.6721 56.3993 6.78263 55.3868 7.43059C54.3545 6.73603 53.7973 5.94706 52.5339 5.37123C51.0866 4.72745 49.4424 4.68648 47.964 5.25721C46.4908 5.82969 45.3057 6.96431 44.6687 8.41128C44.0013 9.93731 43.9618 11.6651 44.56 13.2198C45.1385 14.7279 46.297 15.9414 47.7762 16.5895C49.5663 17.3717 51.8437 17.2463 53.4241 16.0499C54.1652 15.489 54.6137 14.85 55.5236 14.5143C56.1317 14.8932 57.9614 16.5469 58.1909 17.3094C58.2525 17.5131 58.1431 17.6872 58.004 17.8438C56.2594 19.8027 53.8931 21.0433 51.3253 21.3534C48.5949 21.6834 45.8462 20.9012 43.6973 19.1847C41.4974 17.4401 40.0873 14.8876 39.781 12.0967C39.4807 9.29155 40.3101 6.48221 42.085 4.28952C43.9831 1.97406 46.4467 0.852591 49.3824 0.549666Z" fill="#717171"/>
<path d="M30.4598 0.018883C31.2072 -0.0588818 31.7682 0.0848661 32.0961 0.802765C32.5732 1.84731 32.9962 2.91495 33.4323 3.97736L35.8783 9.93552L38.4815 16.2206C39.0957 17.6962 39.754 19.1762 40.2428 20.695C40.0725 20.9543 39.8802 21.1846 39.6871 21.4263C38.7118 21.5593 37.184 21.4955 36.206 21.4187C35.5693 20.5422 34.7456 18.4199 34.2912 17.3397L31.9695 11.8479C31.7225 11.2658 31.2116 9.90763 30.8387 9.51257C30.6331 9.48087 30.6208 9.49729 30.4123 9.5375C29.7619 9.97559 29.2499 11.7009 28.9475 12.4607C28.2901 14.0876 27.6234 15.7107 26.9472 17.3298C26.4893 18.4229 25.6653 20.4115 25.0216 21.3845C24.2545 21.5274 21.0511 21.7927 20.9885 20.8767C20.9251 19.9501 22.2876 17.0181 22.6501 16.1378C23.7294 13.52 24.8245 10.9088 25.9352 8.30414C26.8917 6.02159 28.169 2.59865 29.3414 0.348796C29.4831 0.0768095 30.1396 0.0434363 30.4598 0.018883Z" fill="#717171"/>
<path d="M51.0181 23.9697C52.9724 23.9605 56.1795 23.9218 58.038 24.1491C58.4356 25.1015 58.5853 27.0696 57.9726 27.9879C57.8313 28.2 57.3334 28.2828 57.0848 28.2874C54.1332 28.3429 51.1686 28.1597 48.2177 28.3535C48.1052 28.3794 47.9828 28.4166 47.8718 28.4478C47.4941 28.9571 47.6324 30.3064 47.6514 30.9981C45.9973 29.7667 45.4166 29.4938 43.371 29.3113C43.3855 28.3383 43.1088 25.0985 43.6462 24.2517C43.8773 23.8876 45.8172 23.9955 46.3956 23.9947C47.9365 24.0046 49.4773 23.9963 51.0181 23.9697Z" fill="#717171"/>
<path d="M48.8086 32.3681C50.0013 32.3552 55.5389 32.1758 56.1622 32.5391C56.3652 32.6577 56.4579 32.863 56.5073 33.0842C56.597 33.4871 56.5963 35.5015 56.5096 35.8877C56.4602 36.1081 56.3386 36.3027 56.2238 36.4943C54.4071 36.8219 51.1354 36.6471 49.2198 36.5977C49.5193 34.7026 49.4023 34.1971 48.8086 32.3681Z" fill="#717171"/>
<path d="M31.0651 19.5265C31.4923 19.5242 32.3068 19.5463 32.627 19.8169C32.6266 20.3954 31.8591 23.1867 31.6757 23.8617C31.0765 26.067 30.5404 28.3839 29.8985 30.5648C29.1705 30.5892 28.916 30.5512 28.2549 30.3315C28.8719 27.8039 29.6053 25.2939 30.2278 22.7663C30.4942 21.6846 30.765 20.5991 31.0651 19.5265Z" fill="#717171"/>
<path d="M33.8618 21.2339C35.1805 21.8937 37.2243 23.652 38.5195 24.4547C39.8201 25.2605 35.2489 28.0168 34.6179 28.4722C33.6012 29.2475 33.4731 28.4311 33.0654 27.5311C34.0744 26.6843 35.332 25.801 36.4066 25.0149C35.7267 24.5908 33.6193 23.0811 33.0664 22.5763C33.3613 21.988 33.4805 21.7698 33.8618 21.2339Z" fill="#717171"/>
<path d="M27.0526 21.2666C27.535 21.4688 27.7695 22.1567 27.948 22.6113C26.9997 23.3662 25.6385 24.2791 24.6306 24.999C25.6455 25.7242 27.0203 26.6729 27.9432 27.4969C27.7334 27.9667 27.5651 28.4821 27.1851 28.8082C26.8908 28.8682 27.0434 28.8743 26.7196 28.7063C25.3911 27.7151 24.0215 26.7565 22.7186 25.7379C21.4328 24.7322 23.5846 23.6771 24.3178 23.1799C25.2438 22.5627 26.1556 21.9249 27.0526 21.2666Z" fill="#717171"/>
<path d="M47.7053 39.4141C47.9721 40.3171 47.7752 43.7173 47.5981 44.704C46.6555 44.9572 44.5735 45.078 43.6522 44.8348C43.2044 43.7683 43.304 43.129 43.4021 42.0039C45.6293 41.4308 46.1386 41.0241 47.7053 39.4141Z" fill="#717171"/>
</svg>
