<svg width="138" height="45" viewBox="0 0 138 45" fill="none" xmlns="http://www.w3.org/2000/svg">
<path d="M19.8053 0.000333001C20.6375 -0.0275612 23.4548 1.70502 24.298 2.17202L31.3968 6.11389L36.7849 9.10954C37.6552 9.59113 38.9602 10.2297 39.7313 10.7857C39.8625 11.0984 39.8996 11.664 39.9016 12.0145C39.9377 18.6132 39.9006 25.2128 39.9226 31.8116C39.9246 32.5054 39.9236 33.31 39.7323 33.9775C39.1385 34.499 35.0403 36.7369 34.0668 37.2855C29.4719 39.878 24.908 42.5279 20.2479 45C19.9555 44.9421 19.638 44.848 19.3726 44.7094C15.0701 42.457 10.8067 39.9869 6.56825 37.6112C5.66489 37.1043 0.641307 34.4203 0.105498 33.8993C-0.0327107 33.0507 0.0153585 31.2276 0.014357 30.2955L0.0133545 23.9537L0.012352 15.6719C0.012352 14.3155 -0.0497374 12.0782 0.104496 10.7936C0.757482 10.3801 1.78403 9.86036 2.4911 9.44275C5.3404 7.76029 8.30087 6.24044 11.1932 4.63586L16.7647 1.55748C17.6149 1.09435 18.9349 0.319664 19.8053 0.000333001Z" fill="#1F1D1D"/>
<path d="M1.35176 23.4858C3.2967 24.3947 5.23262 25.6242 7.12047 26.6644C7.87962 27.0823 9.04338 27.8411 9.83057 28.111L9.85561 37.8338C9.26271 37.7041 2.39333 33.6767 1.36077 33.0973C1.32772 32.6159 1.3107 32.1393 1.31571 31.657C1.34074 28.9407 1.25561 26.1995 1.35176 23.4858Z" fill="#616161"/>
<path d="M1.3337 12.4004C2.21704 12.7631 3.1925 13.4113 4.05481 13.8735C5.96369 14.8981 7.90562 16.0824 9.83554 17.0511C9.9407 19.7077 9.92568 24.0237 9.82653 26.6878C6.97522 25.1461 4.14594 23.5655 1.3377 21.9466C1.31467 21.6155 1.30666 21.2857 1.31367 20.9539C1.37376 18.11 1.25258 15.2413 1.3337 12.4004Z" fill="#616161"/>
<path d="M38.387 23.6279L38.5452 23.6461C38.7085 23.8814 38.6434 32.1119 38.6404 33.1159C36.3369 34.1721 32.6964 36.442 30.3449 37.7563L30.2778 37.6957C30.0304 37.0892 30.1566 29.4259 30.1616 28.1815C32.5462 27.0845 35.8382 24.9332 38.387 23.6279Z" fill="#767676"/>
<path d="M38.5267 12.4302C38.711 12.7024 38.6549 21.0325 38.6589 21.9401C36.9063 23.0591 32.1391 25.697 30.2542 26.6142C29.9638 25.7562 30.131 18.4797 30.1721 17.1279C32.9222 15.589 35.7645 13.9049 38.5267 12.4302Z" fill="#767676"/>
<path d="M11.1196 17.8843C13.1827 18.9225 17.5793 21.283 19.4482 22.5362C19.5063 25.6866 19.4592 28.9991 19.4762 32.1681C19.1777 32.0148 18.8843 31.8537 18.5959 31.6822C16.1362 30.2198 13.5823 28.9167 11.1256 27.4498C11.0585 24.3586 11.0735 20.9761 11.1196 17.8843Z" fill="#616161"/>
<path d="M11.125 28.9639C13.4656 29.9205 17.0941 32.5811 19.4496 33.5705C19.4096 36.6857 19.5578 40.126 19.4276 43.1837C16.9398 41.9436 13.5777 39.9093 11.096 38.4804C11.104 35.3285 11.0649 32.1096 11.125 28.9639Z" fill="#616161"/>
<path d="M28.731 29.0151L28.8471 29.0424C28.9593 29.191 28.9483 37.4044 28.9834 38.5166C26.3253 39.9718 23.6032 41.5642 20.9622 43.0665L20.776 43.0964C20.5997 42.8682 20.6858 34.6093 20.6878 33.5861C23.3599 32.1407 26.0669 30.5113 28.731 29.0151Z" fill="#767676"/>
<path d="M28.8563 17.9375L28.9464 17.9928C29.0286 18.5626 28.9795 20.5534 28.9765 21.2199C28.9605 23.2548 28.9645 25.2897 28.9885 27.3244C27.4572 28.4516 25.4061 29.3403 23.7786 30.3575C22.9053 30.9031 21.8697 31.4905 20.9574 31.9476L20.8282 32.0085L20.717 31.8979C20.6409 31.2376 20.708 29.7268 20.708 28.9814C20.701 26.8166 20.707 24.6518 20.727 22.4871C21.4922 21.9415 22.9984 21.1502 23.8387 20.69L28.8563 17.9375Z" fill="#F1E8DE"/>
<path d="M10.478 6.70654C11.3573 7.11634 12.8726 8.04158 13.7739 8.55601C15.4174 9.48405 17.0689 10.3977 18.7274 11.2968C16.0784 12.8684 13.138 14.4308 10.4349 15.9158C9.89508 15.7257 8.22255 14.7522 7.64268 14.4271C5.76484 13.3817 3.89502 12.3223 2.0332 11.2488C4.44685 10.2827 7.93712 7.88489 10.478 6.70654Z" fill="#ABABAB"/>
<path d="M20.0082 12.019C20.7683 12.3981 21.9681 13.1523 22.7483 13.5942C24.5991 14.6377 26.4649 15.6528 28.3468 16.6393C26.9046 17.587 25.0338 18.5202 23.5024 19.3827C22.6391 19.8694 20.7272 20.9617 19.915 21.251C19.269 20.9529 18.1303 20.2751 17.4513 19.9056C15.4913 18.8447 13.5424 17.7627 11.6055 16.6597C13.3771 16.0386 18.3687 13.0746 20.0082 12.019Z" fill="#ABABAB"/>
<path d="M19.9075 1.39551C20.3472 1.43531 27.3097 5.42211 28.3322 5.9247C26.6737 6.9668 24.8119 7.84227 23.1213 8.84911C22.1559 9.42411 21.0853 10.0172 20.0798 10.5129C19.6291 10.5042 12.7497 6.54388 11.665 5.92724C14.0266 4.85665 17.5279 2.73214 19.9075 1.39551Z" fill="#ABABAB"/>
<path d="M29.7128 6.70752C32.1234 8.20545 35.4064 9.90424 37.9492 11.2447C35.166 12.8098 32.4479 14.4061 29.6186 15.9077C29.1309 15.7542 27.2831 14.6638 26.7593 14.3709C24.9456 13.3584 23.1469 12.2889 21.2891 11.3508L29.7128 6.70752Z" fill="#ABABAB"/>
<path d="M56.8389 18.5057L59.4694 18.459C60.7157 20.9729 60.8103 24.0859 61.9661 26.4297C62.6892 23.5975 62.9772 21.3428 63.9396 18.4997C65.1791 18.5266 66.42 18.5344 67.6609 18.5232C66.5539 22.3793 65.2494 27.3967 63.9437 31.0924C62.55 31.0605 61.2794 31.0279 59.8884 31.0957C59.3018 28.7699 58.5948 26.4984 58.0082 24.1503L57.9041 23.9278C57.4756 24.1472 55.8913 30.119 55.5534 31.091C54.3395 31.0606 52.6377 30.9744 51.4739 31.0926C50.5506 28.2425 49.8342 25.2582 48.9258 22.3953C48.5365 21.1675 48.1648 19.819 47.9229 18.5591C49.2124 18.5578 50.5033 18.569 51.7942 18.593C52.3417 21.0856 53.1176 24.3643 53.8178 26.7725C54.5775 24.3057 55.1033 21.646 55.9481 19.1945C56.1387 18.6433 56.3361 18.6043 56.8389 18.5057Z" fill="#616161"/>
<path d="M98.8405 18.2334C102.5 18.047 105.621 20.8545 105.82 24.512C106.02 28.1696 103.221 31.2993 99.5637 31.5115C95.8883 31.7246 92.7374 28.9112 92.5373 25.2354C92.3373 21.5596 95.1624 18.4207 98.8405 18.2334ZM100.015 27.8935C103.378 26.0574 102.451 20.7547 98.066 21.5886C95.2273 23.7258 96.1952 28.6988 100.015 27.8935Z" fill="#616161"/>
<path d="M130.728 18.3632C132.26 18.1378 134.279 18.7404 135.385 19.8647C137.098 21.6082 137.138 23.574 137.15 25.8538C134.547 25.9689 131.141 25.8717 128.514 25.7836C129.563 29.1858 131.4 28.8407 133.889 27.1317C134.831 27.1847 135.688 27.2819 136.623 27.3893C136.754 27.4955 136.726 27.5489 136.779 27.7581C135.165 33.5646 124.802 32.225 124.909 25.5363C124.973 21.5346 126.428 18.5986 130.728 18.3632ZM128.61 23.3342C129.673 23.3059 131.278 23.3655 132.234 23.2946L133.712 23.2909C132.663 21.3094 132.526 21.1377 130.2 21.1781C129.248 21.7639 128.966 22.272 128.61 23.3342Z" fill="#616161"/>
<path d="M72.8685 18.3445C73.0456 18.3361 73.2226 18.3302 73.3997 18.3265C78.4349 18.2282 79.8164 21.2686 79.8948 25.7383C77.6293 25.9391 73.3686 25.9299 71.0815 25.7649C72.0912 28.8083 73.9161 29.1036 76.2924 27.1955C77.1048 27.2133 77.9578 27.2648 78.7742 27.3007L79.2271 27.3586C79.7286 27.8288 79.223 28.5034 78.9121 28.9619C77.2603 31.6791 72.3602 32.244 69.9839 30.2438C65.9206 26.8219 67.0371 19.1417 72.8685 18.3445ZM71.2978 23.2511C72.2224 23.2722 73.224 23.3156 74.1405 23.3101C74.6609 23.3041 75.8802 23.389 76.2005 23.141C76.5614 21.9222 74.619 21.1609 73.5552 21.1815C72.052 21.3634 71.7546 21.86 71.2978 23.2511Z" fill="#616161"/>
<path d="M85.3815 18.3571C88.6297 18.097 90.4289 18.8737 91.3792 22.0432C90.2329 22.0843 89.2637 22.0743 88.1161 22.0406C87.0009 20.9594 85.5802 20.5779 84.242 21.5318C83.9081 22.4876 86.2574 23.0897 86.9022 23.232C88.2823 23.5368 89.4867 23.8508 90.7479 24.5071C92.3402 27.3617 91.4454 30.3071 88.1053 31.1764C87.5943 31.3095 86.84 31.3293 86.302 31.3624C82.7645 31.4362 81.5088 30.4691 80.4814 27.2283C80.9992 27.2118 83.6675 27.0636 83.9487 27.4725C84.83 28.7524 87.4659 29.4098 87.8809 27.4609C87.2591 25.6925 81.3249 26.5994 81.0546 23.0968C80.8059 19.8687 82.4171 18.7026 85.3815 18.3571Z" fill="#616161"/>
<path d="M122.938 18.512L125.147 18.5821C124.709 19.4925 124.506 20.5048 124.153 21.3986C123.1 24.0724 121.923 28.7164 120.686 31.0914C119.222 31.0506 117.684 30.9798 116.229 31.0702C115.564 29.1782 113.949 25.4176 113.545 23.8178L111.86 18.5518L115.705 18.5763C116.809 21.412 117.515 24.3764 118.569 27.2326C119.099 25.5333 120.71 19.8803 121.437 18.7057C121.855 18.4393 122.427 18.5076 122.938 18.512Z" fill="#616161"/>
<path d="M107.252 13.5154C108.42 13.4841 109.632 13.4885 110.805 13.4771V24.6792C110.808 26.5879 110.874 29.2254 110.743 31.09C109.743 30.9972 108.129 31.0211 107.079 31.0085C107.06 28.9491 106.798 14.2627 107.252 13.5154Z" fill="#616161"/>
</svg>
